<?xml version="1.0" standalone="no"?>
<!DOCTYPE svg PUBLIC "-//W3C//DTD SVG 20010904//EN"
 "http://www.w3.org/TR/2001/REC-SVG-20010904/DTD/svg10.dtd">
<svg version="1.0" xmlns="http://www.w3.org/2000/svg"
 width="500.000000pt" height="500.000000pt" viewBox="0 0 500.000000 500.000000"
 preserveAspectRatio="xMidYMid meet">

<g transform="translate(0.000000,500.000000) scale(0.100000,-0.100000)"
fill="#000000" stroke="none">
<path d="M1200 2905 c-102 -13 -195 -24 -207 -24 -12 -1 -27 -10 -33 -21 -15
-27 -24 -104 -16 -135 l7 -26 31 22 c37 27 135 68 162 69 12 0 16 -5 13 -14
-3 -8 2 -17 11 -21 61 -25 121 -42 127 -37 3 4 12 7 18 8 7 0 20 2 31 2 18 2
19 12 1 56 -8 17 -5 18 41 12 27 -4 78 -21 113 -37 35 -16 67 -27 70 -23 11
11 3 92 -13 122 -9 17 -29 40 -45 51 -36 26 -68 26 -311 -4z"/>
<path d="M942 2660 c7 -10 14 -18 15 -16 6 6 -9 36 -18 36 -5 0 -4 -9 3 -20z"/>
</g>
</svg>
